<?xml version="1.0"?>
<svg xmlns="http://www.w3.org/2000/svg" xmlns:xlink="http://www.w3.org/1999/xlink" xmlns:svgjs="http://svgjs.com/svgjs" version="1.1" width="512" height="512" x="0" y="0" viewBox="0 0 512 512" style="enable-background:new 0 0 512 512" xml:space="preserve" class=""><g><g xmlns="http://www.w3.org/2000/svg"><g fill="#57a4ff"><path d="m152 288h-64v-48h72z" fill="#ffffff" data-original="#57a4ff" style="" class=""/><path d="m383 160-47 24v-48z" fill="#ffffff" data-original="#57a4ff" style="" class=""/><path d="m316 104h68v-68a19.994 19.994 0 0 0 -20-20h-68l-8 32h-64l-8-32h-68a19.994 19.994 0 0 0 -20 20v149.61a80.008 80.008 0 0 1 0 156.78v133.61a19.994 19.994 0 0 0 20 20h216a19.994 19.994 0 0 0 20-20v-48.1a72.025 72.025 0 0 1 0-135.8v-76.1h-68a12 12 0 0 1 -12-12v-88a12 12 0 0 1 12-12z" fill="#ffffff" data-original="#57a4ff" style="" class=""/></g><g fill="#004fac"><path d="m288 464h-64a8 8 0 0 0 0 16h64a8 8 0 0 0 0-16z" fill="#2879ff" data-original="#004fac" style="" class=""/><path d="m331.823 129.177a8 8 0 0 0 -3.823 6.823v48a8 8 0 0 0 11.639 7.125l47-24a8 8 0 0 0 0-14.25l-47-24a8 8 0 0 0 -7.816.302zm12.177 19.89 21.409 10.933-21.409 10.933z" fill="#2879ff" data-original="#004fac" style="" class=""/><path d="m151 296a8 8 0 0 0 7.892-6.685l8-48a8 8 0 0 0 -7.892-9.315h-63v-8a8 8 0 0 0 -8-8h-16a8 8 0 0 0 0 16h8v56a8 8 0 0 0 8 8zm-6.777-16h-48.223v-32h53.557z" fill="#2879ff" data-original="#004fac" style="" class=""/><circle cx="144" cy="312" r="8" fill="#2879ff" data-original="#004fac" style="" class=""/><path d="m97 304c-4.418 0-9 3.582-9 8a8 8 0 0 0 16 0c0-4.418-2.582-8-7-8z" fill="#2879ff" data-original="#004fac" style="" class=""/><path d="m408 280a80.321 80.321 0 0 0 -16 1.61v-57.61h12a20.02 20.02 0 0 0 20-20v-88a20.02 20.02 0 0 0 -20-20h-12v-60a28.031 28.031 0 0 0 -28-28h-216a28.031 28.031 0 0 0 -28 28v140.37c-2.64-.24-5.3-.37-8-.37a88 88 0 0 0 0 176c2.7 0 5.36-.13 8-.37v124.37a28.031 28.031 0 0 0 28 28h216a28.031 28.031 0 0 0 28-28v-37.61a80 80 0 1 0 16-158.39zm-4-168a4 4 0 0 1 4 4v88a4 4 0 0 1 -4 4h-88a4 4 0 0 1 -4-4v-88a4 4 0 0 1 4-4zm-211.48 116.52 103.48-55.19v30.67a20.02 20.02 0 0 0 20 20h60v62.7a80.416 80.416 0 0 0 -43.75 47.62l-135.88-45.3a87.949 87.949 0 0 0 -3.85-60.5zm93.23-204.52-4 16h-51.5l-4-16zm-149.75 12a12.01 12.01 0 0 1 12-12h61.75l6.49 25.94a8 8 0 0 0 7.76 6.06h64a8 8 0 0 0 7.76-6.06l6.49-25.94h61.75a12.01 12.01 0 0 1 12 12v60h-60a20.02 20.02 0 0 0 -20 20v39.2l-111.25 59.34a88.319 88.319 0 0 0 -48.75-35.21zm-9.57 298.55a.127.127 0 0 0 -.06.01 72 72 0 1 1 0-141.12.127.127 0 0 0 .06.01 72.013 72.013 0 0 1 0 141.1zm249.57 141.45a12.01 12.01 0 0 1 -12 12h-216a12.01 12.01 0 0 1 -12-12v-127.33a88.434 88.434 0 0 0 54.42-44.76l138.23 46.07a80.938 80.938 0 0 0 -.65 10.02 80.093 80.093 0 0 0 48 73.3zm32-52a64 64 0 1 1 64-64 64.072 64.072 0 0 1 -64 64z" fill="#2879ff" data-original="#004fac" style="" class=""/><path d="m440 376a24.032 24.032 0 0 1 -24 24 8 8 0 0 1 -16 0h-16a8 8 0 0 1 0-16h32a8.011 8.011 0 0 0 8-8c0-4.19-4.29-8-9-8h-15a24 24 0 0 1 0-48 8 8 0 0 1 16 0h16a8 8 0 0 1 0 16h-32a8 8 0 0 0 0 16h15c13.55 0 25 10.99 25 24z" fill="#2879ff" data-original="#004fac" style="" class=""/></g></g></g></svg>
