<?xml version="1.0"?>
<svg xmlns="http://www.w3.org/2000/svg" xmlns:xlink="http://www.w3.org/1999/xlink" xmlns:svgjs="http://svgjs.com/svgjs" version="1.1" width="512" height="512" x="0" y="0" viewBox="0 0 512 512" style="enable-background:new 0 0 512 512" xml:space="preserve" class=""><g><g xmlns="http://www.w3.org/2000/svg"><g fill="#a78cd6"><path d="m174.211 512h-31.11c-7.624 0-13.803-6.18-13.803-13.803v-31.427h58.717v31.427c-.001 7.623-6.181 13.803-13.804 13.803z" fill="#2879ff" data-original="#a78cd6" style="" class=""/><path d="m399.834 512h31.11c7.623 0 13.803-6.18 13.803-13.803v-31.427h-58.717v31.427c.001 7.623 6.181 13.803 13.804 13.803z" fill="#2879ff" data-original="#a78cd6" style="" class=""/></g><path d="m444.747 473.981h-315.45c-19.119 0-34.618-15.499-34.618-34.618v-84.44c0-19.119 15.499-34.618 34.618-34.618h315.45c19.119 0 34.618 15.499 34.618 34.618v84.44c0 19.119-15.499 34.618-34.618 34.618z" fill="#2879ff" data-original="#475a99" style="" class=""/><circle cx="325.716" cy="397.143" fill="#ffffff" r="23.455" data-original="#8ee2e1" style="" class=""/><circle cx="413.288" cy="397.143" fill="#ffffff" r="23.455" data-original="#f5ea72" style="" class=""/><g fill="#efedff"><path d="m159.104 422.466c-4.142 0-7.5-3.357-7.5-7.5v-35.645c0-4.143 3.358-7.5 7.5-7.5s7.5 3.357 7.5 7.5v35.645c0 4.142-3.358 7.5-7.5 7.5z" fill="#ffffff" data-original="#efedff" style="" class=""/><path d="m202.987 422.466c-4.142 0-7.5-3.357-7.5-7.5v-35.645c0-4.143 3.358-7.5 7.5-7.5s7.5 3.357 7.5 7.5v35.645c0 4.142-3.358 7.5-7.5 7.5z" fill="#ffffff" data-original="#efedff" style="" class=""/><path d="m246.871 422.466c-4.142 0-7.5-3.357-7.5-7.5v-35.645c0-4.143 3.358-7.5 7.5-7.5s7.5 3.357 7.5 7.5v35.645c0 4.142-3.358 7.5-7.5 7.5z" fill="#ffffff" data-original="#efedff" style="" class=""/></g><path d="m444.747 320.305h-315.45c-19.119 0-34.618-15.499-34.618-34.618v-84.44c0-19.119 15.499-34.618 34.618-34.618h315.45c19.119 0 34.618 15.499 34.618 34.618v84.44c0 19.119-15.499 34.618-34.618 34.618z" fill="#2879ff" data-original="#6171a3" style="" class=""/><path d="m129.298 166.63c-19.119 0-34.618 15.499-34.618 34.617v10.92c1.7.088 3.411.134 5.132.134h186.309c34.817 0 65.593-18.281 83.013-45.672h-239.836z" fill="#2879ff" data-original="#475a99" style="" class=""/><circle cx="325.716" cy="243.467" fill="#ffffff" r="23.455" data-original="#f5ea72" style="" class=""/><circle cx="413.288" cy="243.467" fill="#ffffff" r="23.455" data-original="#8ee2e1" style="" class=""/><g fill="#efedff"><path d="m159.104 268.79c-4.142 0-7.5-3.357-7.5-7.5v-35.645c0-4.143 3.358-7.5 7.5-7.5s7.5 3.357 7.5 7.5v35.645c0 4.143-3.358 7.5-7.5 7.5z" fill="#ffffff" data-original="#efedff" style="" class=""/><path d="m202.987 268.79c-4.142 0-7.5-3.357-7.5-7.5v-35.645c0-4.143 3.358-7.5 7.5-7.5s7.5 3.357 7.5 7.5v35.645c0 4.143-3.358 7.5-7.5 7.5z" fill="#ffffff" data-original="#efedff" style="" class=""/><path d="m246.871 268.79c-4.142 0-7.5-3.357-7.5-7.5v-35.645c0-4.143 3.358-7.5 7.5-7.5s7.5 3.357 7.5 7.5v35.645c0 4.143-3.358 7.5-7.5 7.5z" fill="#ffffff" data-original="#efedff" style="" class=""/></g><path d="m269.968 50.624c-4.807 1.276-9.755-1.339-11.568-5.971-10.231-26.139-35.669-44.653-65.434-44.653-6.886 0-13.536 1.002-19.825 2.849-37.299 38.041-42.239 153.909 47.194 178.547h65.785c36.542 0 66.798-29.2 67.172-65.74.46-44.858-42.121-75.967-83.324-65.032z" fill="#ffffff" data-original="#efedff" style="" class=""/><path d="m173.141 2.849c-20.892 6.137-37.745 21.712-45.61 41.804-1.813 4.631-6.762 7.246-11.569 5.97-41.17-10.924-83.75 20.122-83.324 64.98.347 36.561 30.611 65.792 67.174 65.792h120.523c-62.5-25.394-66.593-140.703-47.194-178.546z" fill="#ffffff" data-original="#d4d4ff" style="" class=""/><g fill="#a78cd6"><path d="m215.396 133.159c-1.919 0-3.839-.732-5.303-2.196-4.575-4.575-10.657-7.095-17.126-7.095s-12.551 2.52-17.126 7.094c-2.929 2.93-7.678 2.929-10.606.001-2.929-2.929-2.929-7.678 0-10.607 7.407-7.408 17.256-11.488 27.732-11.488s20.325 4.08 27.733 11.487c2.929 2.93 2.929 7.678 0 10.607-1.466 1.465-3.385 2.197-5.304 2.197z" fill="#2879ff" data-original="#a78cd6" style="" class=""/><path d="m243.916 104.639c-1.919 0-3.839-.732-5.303-2.197-12.193-12.192-28.404-18.907-45.647-18.907s-33.454 6.715-45.647 18.908c-2.929 2.928-7.678 2.928-10.606 0-2.929-2.93-2.929-7.678 0-10.607 15.026-15.025 35.004-23.301 56.253-23.301 21.25 0 41.228 8.275 56.253 23.302 2.929 2.929 2.929 7.677 0 10.606-1.464 1.463-3.384 2.196-5.303 2.196z" fill="#2879ff" data-original="#a78cd6" style="" class=""/></g></g></g></svg>
