<?xml version="1.0"?>
<svg xmlns="http://www.w3.org/2000/svg" xmlns:xlink="http://www.w3.org/1999/xlink" xmlns:svgjs="http://svgjs.com/svgjs" version="1.1" width="512" height="512" x="0" y="0" viewBox="0 0 512 512" style="enable-background:new 0 0 512 512" xml:space="preserve" class=""><g><g xmlns="http://www.w3.org/2000/svg"><g><path d="m369.709 256.048c0-83.315-58.109-153.049-136.007-170.908-84.646 10.935-150.04 83.285-150.04 170.908s65.394 159.973 150.04 170.908c77.898-17.859 136.007-87.593 136.007-170.908z" fill="#ffffff" data-original="#eaf2ff" style="" class=""/><path d="m256 83.71c-11.518 0-22.768 1.14-33.653 3.295 79.067 15.653 138.685 85.381 138.685 169.043s-59.618 153.391-138.685 169.044c10.885 2.155 22.135 3.294 33.653 3.294 95.18 0 172.338-77.158 172.338-172.338s-77.158-172.338-172.338-172.338z" fill="#ffffff" data-original="#dbe8f9" style="" class=""/><g><g><path d="m511.802 226.783c-.048-13.748-11.255-24.843-25.004-24.752h-.01c-.159.001-.318-.001-.476-.003-4.769-.075-8.89-3.339-10.178-7.931-5.544-19.763-13.801-38.92-24.753-56.894 1.243-2.836 3.013-5.476 5.312-7.744 9.657-9.527 9.324-25.5-.302-35.059l-40.15-39.871c-9.693-9.626-25.533-9.856-35.056-.061-.265.272-.535.537-.809.795-3.368 3.159-8.456 3.597-12.482 1.335-16.408-9.219-33.705-16.259-51.476-21.111-4.606-1.258-7.904-5.36-8.011-10.133-.004-.156-.006-.311-.006-.467v-.011c-.091-13.772-11.307-24.876-25.081-24.828l-56.75.199c-13.726.048-24.774 11.288-24.586 25.013.001.157 0 .315-.003.472-.075 4.772-3.341 8.895-7.937 10.185-17.738 4.976-34.988 12.138-51.333 21.473-4.008 2.289-9.097 1.886-12.487-1.247-.277-.256-.549-.519-.816-.79-9.593-9.727-25.43-9.389-35.056.305l-39.87 40.149c-9.558 9.625-9.782 25.601-.058 35.06.108.105.215.212.321.318 3.449 3.481 4.127 8.832 1.729 13.106-9.181 16.367-16.196 33.618-21.034 51.339-1.291 4.727-5.607 7.991-10.507 8.018l-.094.001h-.01c-13.773.09-24.877 11.306-24.829 25.08l.198 56.506c.049 13.761 11.243 24.878 25.004 24.829h.01c.156-.001.312 0 .467.003 4.775.074 8.9 3.343 10.19 7.94 4.971 17.718 12.123 34.949 21.442 51.277 2.399 4.204 1.756 9.479-1.612 12.956-.131.135-.263.268-.397.401-9.657 9.522-9.317 25.498.307 35.055l40.15 39.87c9.694 9.627 25.533 9.853 35.058.059.265-.272.535-.537.81-.795 3.367-3.157 8.452-3.596 12.476-1.335 16.41 9.221 62.701 26.541 62.701 26.541l98.392-.386s47.744-17.607 64.081-26.936c4.017-2.293 9.116-1.89 12.51 1.252.27.251.536.508.797.772 9.598 9.727 25.434 9.397 35.063-.299l39.87-40.15c9.558-9.626 9.781-25.602.058-35.06-2.315-2.252-4.104-4.88-5.367-7.707 10.826-18.05 18.948-37.264 24.354-57.064 1.256-4.602 5.355-7.895 10.124-8.004.158-.004.316-.006.475-.006h.01c13.761-.048 24.878-11.243 24.829-25.004zm-255.802 201.603c-95.18 0-172.338-77.158-172.338-172.338s77.158-172.338 172.338-172.338 172.338 77.158 172.338 172.338-77.158 172.338-172.338 172.338z" fill="#2879ff" data-original="#7fb2f9" style="" class=""/></g></g><g><path d="m242.212 466.882v-55.201c0-28.952 10.401-56.952 29.341-78.849 18.966-21.926 31.173-44.936 31.173-77.462 0-.011 0-.023 0-.035.003-3.156-2.547-5.723-5.703-5.723h-.377c0 13.903-11.271 25.173-25.173 25.173h-30.946c-13.903 0-25.173-11.27-25.173-25.173v-77.66c0-9.87-10.908-15.951-19.229-10.643-31.033 19.795-51.615 54.524-51.615 94.062 0 47.034 27.058 72.052 34.631 81.719 16.687 21.3 25.392 47.774 25.392 74.833v78.365c0 11.759 9.369 21.33 21.049 21.656 13.29-5.904 16.63-10.242 16.63-45.062z" fill="#2879ff" data-original="#c9e0fd" style="" class=""/><g><path d="m315.875 161.308c-8.321-5.308-19.229.773-19.229 10.643v77.66c0 .784-.041 1.559-.111 2.325.035 1.141.056 2.285.056 3.434 0 32.009-11.822 54.801-30.273 76.414-19.107 22.381-30.242 50.469-30.242 79.897v55.201c0 36.056-1.024 38.031-15.526 44.301 1.803.487 3.69.77 5.648.77h59.604c11.966 0 21.665-9.7 21.665-21.665v-78.315c0-29.428 10.644-57.806 29.751-80.187 18.451-21.613 30.273-44.405 30.273-76.414-.001-39.54-20.582-74.269-51.616-94.064z" fill="#2879ff" data-original="#bcd6f9" style="" class=""/></g><path d="m256 476.513c-11.003 0-19.923-8.92-19.923-19.923v-104.93c0-11.003 8.92-19.923 19.923-19.923 11.003 0 19.923 8.92 19.923 19.923v104.93c0 11.002-8.92 19.923-19.923 19.923z" fill="#ffffff" data-original="#dbe8f9" style="" class=""/></g></g></g></g></svg>
