<?xml version="1.0"?>
<svg xmlns="http://www.w3.org/2000/svg" xmlns:xlink="http://www.w3.org/1999/xlink" xmlns:svgjs="http://svgjs.com/svgjs" version="1.1" width="512" height="512" x="0" y="0" viewBox="0 0 512 512" style="enable-background:new 0 0 512 512" xml:space="preserve" class=""><g><g xmlns="http://www.w3.org/2000/svg"><g><path d="m75 452c-8.291 0-15-6.709-15-15v-62c0-8.291 6.709-15 15-15s15 6.709 15 15v62c0 8.291-6.709 15-15 15z" fill="#ffffff" data-original="#e6f6ff" style="" class=""/></g><g><path d="m256 452c-8.291 0-15-6.709-15-15v-62c0-8.291 6.709-15 15-15s15 6.709 15 15v62c0 8.291-6.709 15-15 15z" fill="#ffffff" data-original="#e6f6ff" style="" class=""/></g><path d="m271 437v-62c0-8.291-6.709-15-15-15v92c8.291 0 15-6.709 15-15z" fill="#ffffff" data-original="#bee3ed" style="" class=""/><g><path d="m437 452c-8.291 0-15-6.709-15-15v-62c0-8.291 6.709-15 15-15s15 6.709 15 15v62c0 8.291-6.709 15-15 15z" fill="#ffffff" data-original="#bee3ed" style="" class=""/></g><g><path d="m45 482h-30c-8.291 0-15-6.709-15-15s6.709-15 15-15h30c8.291 0 15 6.709 15 15s-6.709 15-15 15z" fill="#ffffff" data-original="#e6f6ff" style="" class=""/></g><g><path d="m226 482h-121c-8.291 0-15-6.709-15-15s6.709-15 15-15h121c8.291 0 15 6.709 15 15s-6.709 15-15 15z" fill="#ffffff" data-original="#e6f6ff" style="" class=""/></g><g><path d="m407 482h-121c-8.291 0-15-6.709-15-15s6.709-15 15-15h121c8.291 0 15 6.709 15 15s-6.709 15-15 15z" fill="#ffffff" data-original="#bee3ed" style="" class=""/></g><g><path d="m497 482h-30c-8.291 0-15-6.709-15-15s6.709-15 15-15h30c8.291 0 15 6.709 15 15s-6.709 15-15 15z" fill="#ffffff" data-original="#bee3ed" style="" class=""/></g><g><g><g><g><path d="m135 390h-120c-8.291 0-15-6.709-15-15v-360c0-8.291 6.709-15 15-15h120c8.291 0 15 6.709 15 15v360c0 8.291-6.709 15-15 15z" fill="#2879ff" data-original="#366ab3" style="" class=""/></g></g></g></g><g><g><g><g><path d="m316 390h-120c-8.291 0-15-6.709-15-15v-360c0-8.291 6.709-15 15-15h120c8.291 0 15 6.709 15 15v360c0 8.291-6.709 15-15 15z" fill="#2879ff" data-original="#366ab3" style="" class=""/></g></g></g></g><path d="m316 390c8.291 0 15-6.709 15-15v-360c0-8.291-6.709-15-15-15h-60v390z" fill="#2879ff" data-original="#004080" style="" class=""/><g><g><g><g><path d="m497 390h-120c-8.291 0-15-6.709-15-15v-360c0-8.291 6.709-15 15-15h120c8.291 0 15 6.709 15 15v360c0 8.291-6.709 15-15 15z" fill="#2879ff" data-original="#004080" style="" class=""/></g></g></g></g><g id="Web_Hosting_1_"><g><circle cx="75" cy="135" fill="#ffffff" r="15" data-original="#e6f6ff" style="" class=""/></g><g><circle cx="75" cy="75" fill="#ffffff" r="15" data-original="#e6f6ff" style="" class=""/></g><g><path d="m75 330c-8.291 0-15-6.709-15-15v-90c0-8.291 6.709-15 15-15s15 6.709 15 15v90c0 8.291-6.709 15-15 15z" fill="#ffffff" data-original="#e6f6ff" style="" class=""/></g><g><circle cx="256" cy="135" fill="#ffffff" r="15" data-original="#e6f6ff" style="" class=""/></g><path d="m271 135c0-8.286-6.716-15-15-15v30c8.284 0 15-6.716 15-15z" fill="#ffffff" data-original="#bee3ed" style="" class=""/><g><circle cx="256" cy="75" fill="#ffffff" r="15" data-original="#e6f6ff" style="" class=""/></g><path d="m271 75c0-8.286-6.716-15-15-15v30c8.284 0 15-6.716 15-15z" fill="#ffffff" data-original="#bee3ed" style="" class=""/><g><path d="m256 330c-8.291 0-15-6.709-15-15v-90c0-8.291 6.709-15 15-15s15 6.709 15 15v90c0 8.291-6.709 15-15 15z" fill="#ffffff" data-original="#e6f6ff" style="" class=""/></g><path d="m271 315v-90c0-8.291-6.709-15-15-15v120c8.291 0 15-6.709 15-15z" fill="#ffffff" data-original="#bee3ed" style="" class=""/><g><circle cx="437" cy="135" fill="#ffffff" r="15" data-original="#bee3ed" style="" class=""/></g><g><circle cx="437" cy="75" fill="#ffffff" r="15" data-original="#bee3ed" style="" class=""/></g><g><path d="m437 330c-8.291 0-15-6.709-15-15v-90c0-8.291 6.709-15 15-15s15 6.709 15 15v90c0 8.291-6.709 15-15 15z" fill="#ffffff" data-original="#bee3ed" style="" class=""/></g><g><path d="m256 512c-24.814 0-45-20.186-45-45s20.186-45 45-45 45 20.186 45 45-20.186 45-45 45z" fill="#2879ff" data-original="#28e7ef" style="" class=""/></g><g><path d="m301 467c0-24.814-20.186-45-45-45v90c24.814 0 45-20.186 45-45z" fill="#2879ff" data-original="#1cace7" style="" class=""/></g><g><path d="m437 512c-24.814 0-45-20.186-45-45s20.186-45 45-45 45 20.186 45 45-20.186 45-45 45z" fill="#2879ff" data-original="#1cace7" style="" class=""/></g><g><path d="m75 512c-24.814 0-45-20.186-45-45s20.186-45 45-45 45 20.186 45 45-20.186 45-45 45z" fill="#2879ff" data-original="#28e7ef" style="" class=""/></g></g></g></g></svg>
